<svg version="1.1" id="Layer_1" xmlns="http://www.w3.org/2000/svg" xmlns:xlink="http://www.w3.org/1999/xlink" x="0px" y="0px"
	 width="100%" viewBox="0 0 1024 1024" enable-background="new 0 0 1024 1024" xml:space="preserve">
<path fill="#000000" opacity="1.000000" stroke="none" 
	d="
M285.700073,95.636948 
	C305.618774,83.189850 326.704803,74.285858 348.957672,68.204956 
	C362.446777,64.518883 376.197174,61.340050 390.196472,61.370136 
	C401.764709,61.395004 411.988373,58.136723 422.165344,53.281425 
	C441.144348,44.226814 461.240662,38.192959 481.772949,34.196293 
	C508.176300,29.056814 534.814026,28.452789 561.721924,31.303675 
	C590.303528,34.331890 617.446045,41.775269 643.462585,53.594364 
	C660.939392,61.533916 677.466980,71.303513 692.134460,83.688286 
	C701.917664,91.948914 712.701538,98.138359 723.940369,104.016678 
	C766.392639,126.220795 804.068909,154.671967 835.698364,190.869080 
	C862.623047,221.681854 883.222656,256.278839 896.822388,294.832062 
	C903.718140,314.380280 908.441956,334.546967 911.687256,355.131073 
	C915.458679,379.052582 918.199951,403.068115 916.783386,427.164612 
	C915.747314,444.787048 919.161865,460.751617 925.885376,476.822144 
	C934.610779,497.677521 939.633179,519.672119 943.677307,541.967468 
	C947.938293,565.458130 948.300964,589.078247 946.900452,612.617310 
	C945.721252,632.437256 942.385498,652.126587 938.041626,671.652344 
	C929.154053,711.602234 914.470032,749.154785 893.947388,784.471008 
	C872.205261,821.885742 844.691833,854.419800 810.356262,880.841919 
	C782.228149,902.487244 751.406677,919.443237 717.914368,931.446533 
	C707.966370,935.011658 699.646484,941.664917 690.520691,946.794373 
	C663.053345,962.233032 633.988647,973.455322 603.187378,979.994629 
	C568.147156,987.434021 532.643555,989.948853 496.922394,987.977966 
	C462.473236,986.077332 428.385864,981.021973 395.033966,972.148926 
	C354.029602,961.239929 315.103485,945.259338 278.724365,923.091125 
	C250.536758,905.914612 224.532288,886.027222 201.392563,862.596924 
	C172.527420,833.369263 149.003418,800.167664 130.129639,763.634827 
	C114.757881,733.880554 103.729080,702.584839 96.703659,669.931580 
	C93.001854,652.726074 90.544395,635.287354 89.670235,617.606934 
	C89.045555,604.972595 87.918777,592.404297 88.572639,579.715332 
	C89.677803,558.268066 91.745926,536.979370 95.568985,515.808899 
	C100.759521,487.066040 108.714493,459.154694 118.763649,431.780243 
	C120.363846,427.421173 121.677200,422.841797 121.735931,418.193024 
	C121.894371,405.652435 124.404449,393.408234 126.509125,381.167755 
	C129.121429,365.975006 132.544769,350.895935 136.249634,335.924103 
	C140.031509,320.641052 144.814987,305.625580 149.851517,290.691803 
	C159.474365,262.159149 171.052567,234.483017 184.796356,207.680420 
	C208.476929,161.499451 241.160217,123.484077 285.700073,95.636948 
M568.318787,953.689270 
	C579.565369,952.352905 590.596497,949.947571 601.619812,947.374207 
	C635.242249,939.525024 666.105591,925.362732 694.806335,906.469238 
	C740.991211,876.066040 775.695129,835.085388 802.612183,787.260376 
	C818.786743,758.522095 831.203674,728.142639 841.234619,696.693787 
	C850.303650,668.260864 857.166199,639.347473 861.703979,609.923340 
	C864.895325,589.230347 867.323547,568.416260 868.192810,547.420593 
	C869.722656,510.469696 867.522583,474.007202 858.436096,437.953522 
	C850.827515,407.763733 838.529907,379.793060 821.742310,353.757904 
	C790.436707,305.207306 750.099121,265.451111 702.265686,233.341385 
	C676.296570,215.908783 648.752014,201.211578 619.871277,189.060562 
	C594.901245,178.554855 569.364014,169.647812 543.188171,162.816116 
	C519.596619,156.658875 495.777924,151.475677 471.565887,147.970581 
	C445.474091,144.193329 419.279297,142.116470 393.000397,141.243515 
	C356.625244,140.035187 320.573578,142.874863 284.735748,149.911453 
	C264.812561,153.823273 250.383499,164.480743 239.228897,180.377289 
	C224.399918,201.510193 212.483582,224.316895 201.955505,247.868546 
	C189.924942,274.781281 179.655975,302.361725 171.591690,330.692719 
	C166.438248,348.797424 162.129044,367.137390 158.806442,385.725311 
	C156.203568,400.286713 153.988251,414.829987 153.308670,429.600555 
	C153.223801,431.445343 152.772781,433.145386 152.138428,434.906311 
	C147.817871,446.900024 143.105820,458.791443 139.566895,471.018829 
	C134.373291,488.963379 129.726471,507.049866 126.698540,525.569946 
	C124.417290,539.522949 122.185570,553.530273 121.547569,567.555786 
	C120.087593,599.651001 121.192673,631.634705 128.909424,663.159729 
	C132.178864,676.516296 135.355881,689.882874 139.840302,702.854797 
	C149.917114,732.003540 163.507126,759.438538 180.414795,785.294189 
	C207.249557,826.330505 241.416885,860.034180 282.169922,886.961426 
	C342.279938,926.678528 409.241730,946.938110 480.316315,954.718872 
	C499.180328,956.784058 518.178772,957.898804 537.174255,956.856506 
	C547.288452,956.301453 557.353760,954.853943 568.318787,953.689270 
M522.594238,126.962158 
	C526.945435,128.015961 531.337097,128.928940 535.636169,130.164093 
	C539.747314,131.345245 543.938171,131.398560 547.998718,130.734512 
	C552.417542,130.011887 554.122437,126.028030 554.602356,122.259453 
	C555.109680,118.275093 553.122314,114.777893 549.372925,112.811638 
	C544.759827,110.392487 539.600708,109.697823 534.638062,108.338829 
	C514.088928,102.711555 493.256989,98.214622 472.191498,95.449303 
	C450.630524,92.618919 428.988586,90.180061 407.025238,91.950500 
	C388.389374,93.452713 369.973969,95.441521 352.078827,101.073975 
	C343.882568,103.653725 335.941895,106.797310 328.234009,110.667397 
	C328.855438,111.785767 329.541290,111.609779 330.165009,111.575661 
	C341.297241,110.966530 352.423096,110.188889 363.562500,109.773331 
	C383.226135,109.039764 402.856415,110.513809 422.493195,111.159286 
	C431.613098,111.459068 440.718292,112.754761 449.786774,113.932884 
	C461.473206,115.451118 473.162598,117.040428 484.765137,119.084908 
	C497.174042,121.271492 509.601410,123.465233 522.594238,126.962158 
M538.367065,61.166195 
	C530.154785,61.429234 521.802979,60.141628 513.855591,63.739075 
	C529.536377,63.739075 545.217102,63.739075 560.897888,63.739075 
	C560.916321,63.534130 560.934814,63.329182 560.953247,63.124237 
	C553.744995,62.475410 546.536804,61.826584 538.367065,61.166195 
z"/>
<path fill="#000000" opacity="1.000000" stroke="none" 
	d="
M282.868866,327.776581 
	C294.079041,319.937439 306.395752,315.220734 319.312073,313.217010 
	C331.189758,311.374359 343.274323,311.710480 355.347046,314.379242 
	C375.382202,318.808197 392.044464,328.630157 405.520172,343.751740 
	C424.051208,364.546021 430.972717,388.794556 427.441803,416.614380 
	C422.621582,454.592560 390.961273,487.879944 353.963837,495.536743 
	C308.646912,504.915283 264.618835,480.045349 247.243454,437.298126 
	C241.337524,422.768250 240.194550,407.705353 242.178528,392.845825 
	C245.257324,369.786285 256.333923,350.285278 274.003967,334.828979 
	C276.754364,332.423126 279.713654,330.256073 282.868866,327.776581 
M301.089630,372.233887 
	C297.277954,372.378113 293.354431,371.508698 289.669769,372.737549 
	C274.017822,377.957611 266.243469,391.528351 269.100128,407.595032 
	C271.712067,422.285522 290.020355,435.079620 305.994537,429.271545 
	C318.542480,424.709259 327.027435,412.692047 326.679749,401.146149 
	C326.223297,385.986206 316.535339,375.061493 301.089630,372.233887 
z"/>
<path fill="#000000" opacity="1.000000" stroke="none" 
	d="
M759.680298,331.301392 
	C777.920898,345.050720 789.122253,362.840515 794.461548,384.689697 
	C797.093201,395.458862 796.953979,406.339996 795.685181,416.910492 
	C793.304077,436.746765 784.163513,453.815491 770.316467,468.292358 
	C757.334595,481.864624 741.871643,491.284088 723.501038,495.353241 
	C697.438721,501.126099 673.301453,496.237457 651.435547,480.903931 
	C634.126221,468.765717 621.837952,452.468811 615.619507,432.424744 
	C611.778503,420.044098 610.197205,407.179993 612.299316,393.690399 
	C614.635132,378.700592 619.011963,364.876404 627.773987,352.699432 
	C640.431580,335.108551 656.671204,322.433075 678.023743,316.341187 
	C690.782288,312.701141 703.655151,311.716309 716.431824,313.136993 
	C732.228516,314.893494 746.783936,321.013458 759.680298,331.301392 
M638.215576,402.400269 
	C637.692566,420.097778 659.282959,435.739380 676.492126,429.223572 
	C694.312012,422.476501 699.334900,408.746216 696.345337,393.947296 
	C693.441650,379.573883 678.267456,369.933197 663.258850,372.372559 
	C649.816528,374.557343 638.144836,385.927856 638.215576,402.400269 
z"/>
<path fill="#000000" opacity="1.000000" stroke="none" 
	d="
M605.674194,688.683350 
	C590.296997,704.103271 573.405823,716.777771 553.958557,726.053894 
	C536.228577,734.510864 517.533997,737.930847 498.380798,734.815918 
	C479.362579,731.722961 462.347565,722.962097 446.746429,711.550781 
	C427.915924,697.777161 411.932068,681.229736 397.600739,662.889404 
	C383.429962,644.754517 371.293091,625.314636 359.490448,605.629639 
	C357.490936,602.294678 356.337555,598.898987 359.523560,595.612061 
	C362.749390,592.283997 366.442017,592.886719 370.091797,594.716309 
	C381.992279,600.681946 394.030365,606.338379 406.564301,610.857483 
	C419.634949,615.570190 433.003632,619.137268 446.594879,622.130981 
	C472.402740,627.815552 498.536041,629.229126 524.784668,628.808960 
	C539.863037,628.567627 554.844055,626.742676 569.812500,624.339233 
	C600.288574,619.445801 628.897644,609.613586 655.968872,594.949097 
	C658.569946,593.539978 661.223816,591.004028 664.734680,592.996643 
	C668.307739,595.024597 669.676636,600.330688 667.232178,604.423889 
	C656.145935,622.987854 644.603638,641.262939 631.611572,658.572205 
	C623.713196,669.095215 615.230591,679.130920 605.674194,688.683350 
z"/>
<path fill="#000000" opacity="1.000000" stroke="none" 
	d="
M276.659241,298.656677 
	C275.019135,299.484253 273.622284,300.724274 272.375885,298.989807 
	C271.470642,297.730072 272.362701,296.507111 273.042969,295.321594 
	C282.843750,278.242188 295.898682,264.653473 314.830536,257.969635 
	C325.410553,254.234436 336.218506,253.660538 347.475830,256.423370 
	C369.803589,261.903198 384.422516,276.253204 395.281860,295.474701 
	C395.687988,296.193604 396.047241,296.960083 396.278595,297.748322 
	C396.404846,298.178436 396.216125,298.700989 396.126282,299.626709 
	C391.277313,299.965179 387.503632,296.875000 383.257080,295.614075 
	C372.844696,292.522247 362.552307,289.271301 351.637756,288.024353 
	C344.537323,287.213196 337.504089,285.766083 330.340179,286.338318 
	C317.158051,287.391296 304.174347,289.506317 291.485046,293.468872 
	C286.591736,294.996948 281.871277,296.944153 276.659241,298.656677 
z"/>
<path fill="#000000" opacity="1.000000" stroke="none" 
	d="
M725.946228,259.845245 
	C743.348511,267.731140 759.356201,283.967987 764.518555,298.889648 
	C762.928955,301.050110 761.402710,299.508636 759.776428,298.848816 
	C740.280151,290.938538 720.230408,285.545441 698.973206,286.290344 
	C686.322266,286.733643 674.030945,289.399597 661.956177,293.141144 
	C656.260986,294.905853 650.602844,296.743378 645.233704,299.368530 
	C644.130188,299.908142 643.007263,300.273254 642.012390,299.278656 
	C640.894714,298.161255 641.781128,297.144073 642.331665,296.139801 
	C652.558533,277.483215 666.791443,263.362244 687.683838,257.317780 
	C700.478577,253.616119 713.226379,254.735535 725.946228,259.845245 
z"/>
<path fill="#000000" opacity="1.000000" stroke="none" 
	d="
M802.931519,546.470459 
	C794.795776,555.780518 785.616943,555.440735 778.643738,545.666199 
	C774.504517,539.864014 770.798645,533.753723 768.029236,527.146179 
	C765.602356,521.355469 766.600952,515.891479 770.679077,512.018372 
	C775.010071,507.905060 781.105896,506.539948 786.143433,510.599304 
	C795.849060,518.420288 802.675781,528.459229 804.152954,541.338196 
	C804.342224,542.988770 804.062866,544.662781 802.931519,546.470459 
z"/>
<path fill="#000000" opacity="1.000000" stroke="none" 
	d="
M223.780457,542.645874 
	C223.339874,538.447083 224.221329,534.951233 226.124359,531.722046 
	C230.066208,525.033203 232.931015,517.596436 238.992050,512.349609 
	C243.909805,508.092438 248.798798,507.674957 254.167908,510.739960 
	C259.180237,513.601196 261.858032,518.403503 261.132263,523.463196 
	C260.650116,526.824341 258.687622,529.605469 257.168365,532.521667 
	C254.026611,538.552429 250.936752,544.684326 245.946716,549.465210 
	C238.094513,556.988281 226.607330,553.621704 223.780457,542.645874 
z"/>
<path fill="#000000" opacity="1.000000" stroke="none" 
	d="
M811.834229,569.333496 
	C816.678162,559.059387 831.410400,559.350708 836.774719,569.186707 
	C840.257568,575.572937 844.662476,581.454590 847.000305,588.471497 
	C848.643799,593.404236 847.498840,598.481323 843.573730,602.004883 
	C839.768860,605.420471 833.016907,606.918274 829.253723,604.133545 
	C819.278442,596.751892 813.978516,586.185791 810.758911,574.484375 
	C810.331970,572.932495 810.723083,571.170776 811.834229,569.333496 
z"/>
<path fill="#000000" opacity="1.000000" stroke="none" 
	d="
M184.627029,581.786621 
	C187.561905,576.529419 190.331802,571.605469 193.987000,567.271240 
	C199.043152,561.275818 205.277267,560.256104 211.686493,564.282654 
	C217.319290,567.821411 219.053696,574.769714 215.950775,581.366516 
	C212.979553,587.683289 209.217163,593.547424 205.311111,599.294678 
	C201.795395,604.467590 195.543472,606.760437 190.012405,605.041504 
	C185.075104,603.507202 181.523117,600.356934 181.017181,594.895508 
	C180.589951,590.283569 182.467590,586.155029 184.627029,581.786621 
z"/>
<path fill="#000000" opacity="1.000000" stroke="none" 
	d="
M786.675903,569.306274 
	C791.530762,576.078003 796.065430,582.617737 798.822021,590.206421 
	C801.090454,596.451172 799.922729,601.044373 794.930420,604.741760 
	C789.851318,608.503418 782.858215,608.664185 778.415222,604.269836 
	C771.241028,597.174377 766.161621,588.525513 763.105591,578.956604 
	C761.686829,574.514221 764.179871,570.443298 767.757507,567.609253 
	C771.383484,564.737061 775.484558,562.847961 780.235840,564.947021 
	C782.510681,565.952026 784.763611,567.075500 786.675903,569.306274 
z"/>
<path fill="#000000" opacity="1.000000" stroke="none" 
	d="
M266.415039,572.158447 
	C267.825958,576.682678 267.548706,580.650879 265.215424,584.437439 
	C261.657990,590.210510 258.692108,596.356262 254.317978,601.611694 
	C249.208252,607.750916 242.867401,609.146484 236.786575,605.462158 
	C231.671356,602.362976 229.625717,595.221008 232.439102,588.663635 
	C235.249191,582.113892 238.663422,575.822754 243.179428,570.261597 
	C250.592560,561.132812 259.939972,561.815186 266.415039,572.158447 
z"/>
</svg>